<?xml version="1.0" encoding="UTF-8" standalone="no"?>
<svg width="308px" height="309px" viewBox="0 0 308 309" version="1.1" xmlns="http://www.w3.org/2000/svg" xmlns:xlink="http://www.w3.org/1999/xlink" xmlns:sketch="http://www.bohemiancoding.com/sketch/ns">
    <title>logo</title>
    <description>Created with Sketch (http://www.bohemiancoding.com/sketch)</description>
    <defs></defs>
    <g id="Page-1" stroke="none" stroke-width="1" fill="none" fill-rule="evenodd" sketch:type="MSPage">
        <path d="M0,39 L308,39 L308,0 L0,0 L0,39 Z M0,309 L308,309 L308,270 L0,270 L0,309 Z M192,77 L160.135307,77 L160.135307,178.682192 C160.135307,181.354351 160.033828,184.131949 159.830867,187.015068 C159.627906,189.898188 159.019033,192.570307 158.004228,195.031507 C156.989424,197.492706 155.331935,199.496796 153.031712,201.043836 C150.73149,202.590875 147.484165,203.364384 143.289641,203.364384 C139.501038,203.364384 136.422845,202.731513 134.054968,201.465753 C131.687092,200.199994 129.826645,198.47718 128.473573,196.29726 C127.120501,194.117341 126.173364,191.480381 125.632135,188.386301 C125.090906,185.292222 124.820296,181.916913 124.820296,178.260274 L124.820296,171.509589 L96,171.509589 L96,184.589041 C96,192.886799 97.353052,199.953852 100.059197,205.790411 C102.765341,211.62697 106.350929,216.408657 110.816068,220.135616 C115.281206,223.862576 120.355151,226.605014 126.038055,228.363014 C131.720959,230.121013 137.606735,231 143.69556,231 C154.520139,231 163.112019,229.277186 169.471459,225.831507 C175.830899,222.385828 180.701886,218.096373 184.084567,212.963014 C187.467247,207.829655 189.632131,202.309619 190.579281,196.40274 C191.526432,190.495861 192,185.081303 192,180.158904 L192,77 Z M192,77" id="Rectangle-2" fill="#3D464D" sketch:type="MSShapeGroup"></path>
    </g>
</svg>